<mxfile host="app.diagrams.net" modified="2024-02-18T18:45:50.890Z" agent="Mozilla/5.0 (Windows NT 10.0; Win64; x64) AppleWebKit/537.36 (KHTML, like Gecko) Chrome/121.0.0.0 Safari/537.36" etag="exwM-s1-oBcwON1Hy0pP" version="23.1.5" type="device">
  <diagram name="Page-1" id="8jy67AWcr0lDENUvTXb9">
    <mxGraphModel dx="880" dy="1606" grid="1" gridSize="10" guides="1" tooltips="1" connect="1" arrows="1" fold="1" page="1" pageScale="1" pageWidth="850" pageHeight="1100" math="0" shadow="0">
      <root>
        <mxCell id="0" />
        <mxCell id="1" parent="0" />
        <mxCell id="By5fcp_h9XZ7AFGPQDWY-1" value="192.168.10.3" style="fontColor=#0066CC;verticalAlign=top;verticalLabelPosition=bottom;labelPosition=center;align=center;html=1;outlineConnect=0;fillColor=#CCCCCC;strokeColor=#6881B3;gradientColor=none;gradientDirection=north;strokeWidth=2;shape=mxgraph.networks.pc;" vertex="1" parent="1">
          <mxGeometry x="50" y="130" width="70" height="50" as="geometry" />
        </mxCell>
        <mxCell id="By5fcp_h9XZ7AFGPQDWY-2" value="192.168.10.33" style="fontColor=#0066CC;verticalAlign=top;verticalLabelPosition=bottom;labelPosition=center;align=center;html=1;outlineConnect=0;fillColor=#CCCCCC;strokeColor=#6881B3;gradientColor=none;gradientDirection=north;strokeWidth=2;shape=mxgraph.networks.mobile;" vertex="1" parent="1">
          <mxGeometry x="500" y="150" width="50" height="100" as="geometry" />
        </mxCell>
        <mxCell id="By5fcp_h9XZ7AFGPQDWY-3" value="192.168.10.34" style="fontColor=#0066CC;verticalAlign=top;verticalLabelPosition=bottom;labelPosition=center;align=center;html=1;outlineConnect=0;fillColor=#CCCCCC;strokeColor=#6881B3;gradientColor=none;gradientDirection=north;strokeWidth=2;shape=mxgraph.networks.tablet;" vertex="1" parent="1">
          <mxGeometry x="670" y="165" width="100" height="70" as="geometry" />
        </mxCell>
        <mxCell id="By5fcp_h9XZ7AFGPQDWY-4" value="192.168.10.7" style="fontColor=#0066CC;verticalAlign=top;verticalLabelPosition=bottom;labelPosition=center;align=center;html=1;outlineConnect=0;fillColor=#CCCCCC;strokeColor=#6881B3;gradientColor=none;gradientDirection=north;strokeWidth=2;shape=mxgraph.networks.scanner;" vertex="1" parent="1">
          <mxGeometry x="140" y="350" width="100" height="75" as="geometry" />
        </mxCell>
        <mxCell id="By5fcp_h9XZ7AFGPQDWY-5" value="192.168.10.6" style="fontColor=#0066CC;verticalAlign=top;verticalLabelPosition=bottom;labelPosition=center;align=center;html=1;outlineConnect=0;fillColor=#CCCCCC;strokeColor=#6881B3;gradientColor=none;gradientDirection=north;strokeWidth=2;shape=mxgraph.networks.security_camera;" vertex="1" parent="1">
          <mxGeometry x="255" y="226.88" width="80" height="63.75" as="geometry" />
        </mxCell>
        <mxCell id="By5fcp_h9XZ7AFGPQDWY-7" value="192.168.10.5" style="fontColor=#0066CC;verticalAlign=top;verticalLabelPosition=bottom;labelPosition=center;align=center;html=1;outlineConnect=0;fillColor=#CCCCCC;strokeColor=#6881B3;gradientColor=none;gradientDirection=north;strokeWidth=2;shape=mxgraph.networks.copier;" vertex="1" parent="1">
          <mxGeometry x="50" y="220.01" width="70" height="77.5" as="geometry" />
        </mxCell>
        <mxCell id="By5fcp_h9XZ7AFGPQDWY-8" value="192.168.10.35" style="shape=image;html=1;verticalAlign=top;verticalLabelPosition=bottom;labelBackgroundColor=#ffffff;imageAspect=0;aspect=fixed;image=https://cdn2.iconfinder.com/data/icons/software-engineering-and-video-gaming/512/616_Console_game_gaming_playstation_play-128.png" vertex="1" parent="1">
          <mxGeometry x="500" y="280" width="128" height="128" as="geometry" />
        </mxCell>
        <mxCell id="By5fcp_h9XZ7AFGPQDWY-9" value="192.168.10.4" style="image;html=1;image=img/lib/clip_art/computers/Printer_128x128.png" vertex="1" parent="1">
          <mxGeometry x="255" y="115" width="70" height="65" as="geometry" />
        </mxCell>
        <mxCell id="By5fcp_h9XZ7AFGPQDWY-41" style="edgeStyle=orthogonalEdgeStyle;rounded=0;orthogonalLoop=1;jettySize=auto;html=1;" edge="1" parent="1" source="By5fcp_h9XZ7AFGPQDWY-12" target="By5fcp_h9XZ7AFGPQDWY-2">
          <mxGeometry relative="1" as="geometry" />
        </mxCell>
        <mxCell id="By5fcp_h9XZ7AFGPQDWY-42" style="edgeStyle=orthogonalEdgeStyle;rounded=0;orthogonalLoop=1;jettySize=auto;html=1;exitX=1;exitY=0.5;exitDx=0;exitDy=0;" edge="1" parent="1" source="By5fcp_h9XZ7AFGPQDWY-12">
          <mxGeometry relative="1" as="geometry">
            <mxPoint x="730" y="160" as="targetPoint" />
          </mxGeometry>
        </mxCell>
        <mxCell id="By5fcp_h9XZ7AFGPQDWY-43" style="edgeStyle=orthogonalEdgeStyle;rounded=0;orthogonalLoop=1;jettySize=auto;html=1;exitX=0.25;exitY=1;exitDx=0;exitDy=0;" edge="1" parent="1" source="By5fcp_h9XZ7AFGPQDWY-12" target="By5fcp_h9XZ7AFGPQDWY-8">
          <mxGeometry relative="1" as="geometry" />
        </mxCell>
        <mxCell id="By5fcp_h9XZ7AFGPQDWY-44" style="edgeStyle=orthogonalEdgeStyle;rounded=0;orthogonalLoop=1;jettySize=auto;html=1;exitX=0.5;exitY=1;exitDx=0;exitDy=0;" edge="1" parent="1" source="By5fcp_h9XZ7AFGPQDWY-12" target="By5fcp_h9XZ7AFGPQDWY-32">
          <mxGeometry relative="1" as="geometry">
            <Array as="points">
              <mxPoint x="650" y="260" />
              <mxPoint x="750" y="260" />
            </Array>
          </mxGeometry>
        </mxCell>
        <mxCell id="By5fcp_h9XZ7AFGPQDWY-12" value="192.168.10.32" style="image;html=1;image=img/lib/clip_art/networking/Wireless_Router_128x128.png" vertex="1" parent="1">
          <mxGeometry x="610" y="10" width="80" height="80" as="geometry" />
        </mxCell>
        <mxCell id="By5fcp_h9XZ7AFGPQDWY-15" value="" style="image;html=1;image=img/lib/clip_art/networking/Firewall_02_128x128.png" vertex="1" parent="1">
          <mxGeometry x="371" y="-300" width="80" height="80" as="geometry" />
        </mxCell>
        <mxCell id="By5fcp_h9XZ7AFGPQDWY-45" style="edgeStyle=orthogonalEdgeStyle;rounded=0;orthogonalLoop=1;jettySize=auto;html=1;exitX=0;exitY=0.75;exitDx=0;exitDy=0;" edge="1" parent="1" source="By5fcp_h9XZ7AFGPQDWY-16">
          <mxGeometry relative="1" as="geometry">
            <mxPoint x="90" y="120" as="targetPoint" />
          </mxGeometry>
        </mxCell>
        <mxCell id="By5fcp_h9XZ7AFGPQDWY-46" style="edgeStyle=orthogonalEdgeStyle;rounded=0;orthogonalLoop=1;jettySize=auto;html=1;exitX=1;exitY=0.75;exitDx=0;exitDy=0;entryX=0.5;entryY=0;entryDx=0;entryDy=0;" edge="1" parent="1" source="By5fcp_h9XZ7AFGPQDWY-16" target="By5fcp_h9XZ7AFGPQDWY-9">
          <mxGeometry relative="1" as="geometry" />
        </mxCell>
        <mxCell id="By5fcp_h9XZ7AFGPQDWY-47" style="edgeStyle=orthogonalEdgeStyle;rounded=0;orthogonalLoop=1;jettySize=auto;html=1;exitX=0.5;exitY=1;exitDx=0;exitDy=0;" edge="1" parent="1" source="By5fcp_h9XZ7AFGPQDWY-16" target="By5fcp_h9XZ7AFGPQDWY-4">
          <mxGeometry relative="1" as="geometry">
            <Array as="points">
              <mxPoint x="180" y="220" />
              <mxPoint x="190" y="220" />
            </Array>
          </mxGeometry>
        </mxCell>
        <mxCell id="By5fcp_h9XZ7AFGPQDWY-48" style="edgeStyle=orthogonalEdgeStyle;rounded=0;orthogonalLoop=1;jettySize=auto;html=1;exitX=0.75;exitY=1;exitDx=0;exitDy=0;" edge="1" parent="1" source="By5fcp_h9XZ7AFGPQDWY-16" target="By5fcp_h9XZ7AFGPQDWY-5">
          <mxGeometry relative="1" as="geometry">
            <Array as="points">
              <mxPoint x="200" y="200" />
              <mxPoint x="295" y="200" />
            </Array>
          </mxGeometry>
        </mxCell>
        <mxCell id="By5fcp_h9XZ7AFGPQDWY-49" style="edgeStyle=orthogonalEdgeStyle;rounded=0;orthogonalLoop=1;jettySize=auto;html=1;exitX=0.25;exitY=1;exitDx=0;exitDy=0;" edge="1" parent="1" source="By5fcp_h9XZ7AFGPQDWY-16" target="By5fcp_h9XZ7AFGPQDWY-7">
          <mxGeometry relative="1" as="geometry">
            <Array as="points">
              <mxPoint x="160" y="200" />
              <mxPoint x="85" y="200" />
            </Array>
          </mxGeometry>
        </mxCell>
        <mxCell id="By5fcp_h9XZ7AFGPQDWY-16" value="192.168.10.2" style="image;html=1;image=img/lib/clip_art/networking/Switch_128x128.png" vertex="1" parent="1">
          <mxGeometry x="140" y="10" width="80" height="80" as="geometry" />
        </mxCell>
        <mxCell id="By5fcp_h9XZ7AFGPQDWY-19" value="" style="outlineConnect=0;dashed=0;verticalLabelPosition=bottom;verticalAlign=top;align=center;html=1;shape=mxgraph.aws3.internet_3;fillColor=#D2D3D3;gradientColor=none;" vertex="1" parent="1">
          <mxGeometry x="370" y="-610" width="79.5" height="54" as="geometry" />
        </mxCell>
        <mxCell id="By5fcp_h9XZ7AFGPQDWY-31" style="edgeStyle=orthogonalEdgeStyle;rounded=0;orthogonalLoop=1;jettySize=auto;html=1;exitX=0.75;exitY=1;exitDx=0;exitDy=0;" edge="1" parent="1" source="By5fcp_h9XZ7AFGPQDWY-18" target="By5fcp_h9XZ7AFGPQDWY-12">
          <mxGeometry relative="1" as="geometry" />
        </mxCell>
        <mxCell id="By5fcp_h9XZ7AFGPQDWY-18" value="192.168.10.1" style="image;html=1;image=img/lib/clip_art/networking/Router_128x128.png" vertex="1" parent="1">
          <mxGeometry x="370" y="-140" width="80" height="80" as="geometry" />
        </mxCell>
        <mxCell id="By5fcp_h9XZ7AFGPQDWY-29" value="" style="html=1;outlineConnect=0;fillColor=#CCCCCC;strokeColor=#6881B3;gradientColor=none;gradientDirection=north;strokeWidth=2;shape=mxgraph.networks.comm_link_edge;html=1;rounded=0;" edge="1" parent="1" target="By5fcp_h9XZ7AFGPQDWY-15">
          <mxGeometry width="100" height="100" relative="1" as="geometry">
            <mxPoint x="396.5" y="-130" as="sourcePoint" />
            <mxPoint x="413.16666666666674" y="-210" as="targetPoint" />
            <Array as="points">
              <mxPoint x="425.5" y="-180" />
            </Array>
          </mxGeometry>
        </mxCell>
        <mxCell id="By5fcp_h9XZ7AFGPQDWY-32" value="192.168.10.36" style="sketch=0;pointerEvents=1;shadow=0;dashed=0;html=1;strokeColor=none;fillColor=#505050;labelPosition=center;verticalLabelPosition=bottom;verticalAlign=top;outlineConnect=0;align=center;shape=mxgraph.office.devices.tv;" vertex="1" parent="1">
          <mxGeometry x="720" y="312.5" width="59" height="45" as="geometry" />
        </mxCell>
        <mxCell id="By5fcp_h9XZ7AFGPQDWY-34" style="edgeStyle=orthogonalEdgeStyle;rounded=0;orthogonalLoop=1;jettySize=auto;html=1;exitX=0.5;exitY=1;exitDx=0;exitDy=0;entryX=0.4;entryY=-0.025;entryDx=0;entryDy=0;entryPerimeter=0;" edge="1" parent="1" source="By5fcp_h9XZ7AFGPQDWY-18" target="By5fcp_h9XZ7AFGPQDWY-16">
          <mxGeometry relative="1" as="geometry" />
        </mxCell>
        <mxCell id="By5fcp_h9XZ7AFGPQDWY-52" value="" style="html=1;strokeWidth=1;shadow=0;dashed=0;shape=mxgraph.ios7.misc.vpn;fillColor=#007AFF;strokeColor=none;buttonText=;strokeColor2=#222222;fontColor=#222222;fontSize=8;verticalLabelPosition=bottom;verticalAlign=top;align=center;sketch=0;" vertex="1" parent="1">
          <mxGeometry x="373" y="-430" width="78" height="60" as="geometry" />
        </mxCell>
        <mxCell id="By5fcp_h9XZ7AFGPQDWY-54" value="" style="shape=singleArrow;whiteSpace=wrap;html=1;arrowWidth=0.4;arrowSize=0.4;fontSize=8;verticalAlign=top;fillColor=#007AFF;strokeColor=none;fontColor=#222222;strokeWidth=1;shadow=0;dashed=0;sketch=0;rotation=-90;" vertex="1" parent="1">
          <mxGeometry x="360" y="-510" width="100" height="30" as="geometry" />
        </mxCell>
        <mxCell id="By5fcp_h9XZ7AFGPQDWY-56" style="edgeStyle=orthogonalEdgeStyle;rounded=0;orthogonalLoop=1;jettySize=auto;html=1;exitX=0.5;exitY=0;exitDx=0;exitDy=0;entryX=0.487;entryY=1.017;entryDx=0;entryDy=0;entryPerimeter=0;" edge="1" parent="1" source="By5fcp_h9XZ7AFGPQDWY-15" target="By5fcp_h9XZ7AFGPQDWY-52">
          <mxGeometry relative="1" as="geometry" />
        </mxCell>
      </root>
    </mxGraphModel>
  </diagram>
</mxfile>
